 <!DOCTYPE svg PUBLIC "-//W3C//DTD SVG 1.1//EN" "http://www.w3.org/Graphics/SVG/1.1/DTD/svg11.dtd">
<svg xmlns="http://www.w3.org/2000/svg" width="865.76" height="682.89" viewBox="0 0 865.76 682.89">
<defs>
<style xmlns="http://www.w3.org/1999/xhtml">*, ::after, ::before { box-sizing: border-box; }
img, svg { vertical-align: middle; }
</style>
<style xmlns="http://www.w3.org/1999/xhtml">*, body, html { -webkit-font-smoothing: antialiased; }
img, svg { max-width: 100%; }
</style>
</defs>
<path d="M806.73,279.67,663.77,657H139a41.8,41.8,0,0,1-40.85-33l-84-388.38a45.94,45.94,0,0,1,28.76-52.74L314.42,81l9.58-3.6,10.94-4.12L463.58,24.94l4.1-1.53,29.35-11a43.12,43.12,0,0,1,42.22,6.82l75.56,61,8.49,6.85.38.31,21.89,17.68L791.3,222.71A50.29,50.29,0,0,1,806.73,279.67Z" fill="#0071f2" data-primary="true"/>
<path d="M806.73,279.67,663.77,657H139a41.8,41.8,0,0,1-40.85-33l-84-388.38a45.94,45.94,0,0,1,28.76-52.74L314.42,81l9.58-3.6,10.94-4.12L463.58,24.94l4.1-1.53,29.35-11a43.12,43.12,0,0,1,42.22,6.82l75.56,61,8.49,6.85.38.31,21.89,17.68L791.3,222.71A50.29,50.29,0,0,1,806.73,279.67Z" fill="#fff" opacity="0.7"/>
<path d="M287.88,298.46c-36.75,13.64-56.16,5.58-64.67-.74a24.26,24.26,0,0,1-8.08-10.65h0c-7.1-18.11,5.45-34,18.65-44.94A106,106,0,0,1,281.56,220c28.56-5.42,41.89,3.71,47.76,10.85a21.44,21.44,0,0,1,2.35,3.58,22,22,0,0,1,2.46,9.52C335.27,278.71,287.88,298.46,287.88,298.46Z" fill="#ebebeb"/>
<rect x="498.33" y="290.77" width="258.26" height="10.44" fill="#2e3135"/>
<path d="M493.15,257.8h1.58a5.26,5.26,0,0,1,5.26,5.26V656.73a0,0,0,0,1,0,0H487.89a0,0,0,0,1,0,0V263.06A5.26,5.26,0,0,1,493.15,257.8Z" fill="#3f4347"/>
<path d="M519.68,293.52c36.76,13.64,56.16,5.57,64.68-.75a24.34,24.34,0,0,0,8.07-10.64h0c7.1-18.1-5.45-34-18.65-44.94A106.06,106.06,0,0,0,526,215c-28.56-5.42-41.89,3.71-47.76,10.85a21,21,0,0,0-2.35,3.57,22.2,22.2,0,0,0-2.46,9.52C472.29,273.77,519.68,293.52,519.68,293.52Z" fill="#ebebeb"/>
<path d="M475.89,229.43a21,21,0,0,1,2.35-3.57c5.87-7.14,19.2-16.27,47.76-10.85a106.06,106.06,0,0,1,47.79,22.17c13.2,10.9,25.75,26.84,18.65,44.94.22-.09,6.64-3.05,9.46-16.07.3-1.36.55-2.82.75-4.4,0,0,1.1-31.87-46.15-53.85,0,0-39.48-16.33-64.78-3.68A29,29,0,0,0,481,213.36h0a28.08,28.08,0,0,0-4.71,11.2A21.06,21.06,0,0,0,475.89,229.43Z" fill="#3f4347"/>
<path d="M481,213.36a29,29,0,0,1,10.75-9.24c25.3-12.65,64.78,3.68,64.78,3.68,47.25,22,46.15,53.85,46.15,53.85-.2,1.58-.45,3-.75,4.4,0,0,10.79-9.25,0-32.38,0,0-23.65-46.2-85.94-43.49a48.05,48.05,0,0,0-21.75,6.12C488,199.87,481.78,205.37,481,213.36Z" fill="#2e3135"/>
<ellipse cx="519.13" cy="229.43" rx="10.44" ry="18.79" transform="translate(92.26 603.49) rotate(-65.07)" fill="#fff"/>
<ellipse cx="493.86" cy="249.76" rx="9.94" ry="18.56" transform="translate(59.21 592.33) rotate(-65.07)" fill="#fff"/>
<ellipse cx="520.82" cy="280.51" rx="9.94" ry="17.3" transform="translate(46.92 634.56) rotate(-65.07)" fill="#fff"/>
<rect x="490.64" y="545.73" width="262.1" height="111" fill="#e1e1e2"/>
<g opacity="0.2">
<rect x="620.73" y="449.51" width="1.65" height="261.85" transform="translate(33.46 1194.76) rotate(-89.29)"/>
</g>
<g opacity="0.2">
<rect x="620.73" y="492.37" width="1.65" height="261.85" transform="translate(-9.39 1237.09) rotate(-89.29)"/>
</g>
<rect x="490.64" y="535.29" width="265.95" height="10.44" fill="#2e3135"/>
<rect x="564.82" y="333.63" width="80.77" height="39.01" rx="6.38" fill="#0071f2" data-primary="true"/>
<path d="M645.59,340v26.25a6.37,6.37,0,0,1-6.38,6.38h-7c2-1.11,1.31-4.94,1.31-4.94l-.44-26.93c.66-6.6-5.6-7.14-5.6-7.14h11.75A6.38,6.38,0,0,1,645.59,340Z" opacity="0.2"/>
<path d="M758,257.8h1.58a5.26,5.26,0,0,1,5.26,5.26V656.73a0,0,0,0,1,0,0H752.74a0,0,0,0,1,0,0V263.06A5.26,5.26,0,0,1,758,257.8Z" fill="#3f4347"/>
<ellipse cx="563.97" cy="249.2" rx="11.29" ry="19.54" transform="translate(100.27 655.58) rotate(-65.07)" fill="#fff"/>
<ellipse cx="563.2" cy="281.68" rx="9.94" ry="18.43" transform="translate(70.37 673.68) rotate(-65.07)" fill="#fff"/>
<rect x="498.33" y="373.19" width="258.26" height="10.44" fill="#2e3135"/>
<path d="M200.35,423h71.43a0,0,0,0,1,0,0v13.19a0,0,0,0,1,0,0H208.86a8.51,8.51,0,0,1-8.51-8.51V423A0,0,0,0,1,200.35,423Z" fill="#2e3135"/>
<rect x="227.83" y="436.17" width="46.16" height="219.79" fill="#f8f6ee"/>
<rect x="227.83" y="436.17" width="11.54" height="219.79" fill="#e1e1e2"/>
<rect x="191.56" y="342.21" width="109.35" height="80.77" rx="16.63" fill="#e1e1e2"/>
<path d="M117.1,364.19h9.34a0,0,0,0,1,0,0v10.22a4.06,4.06,0,0,1-4.06,4.06h-1.22a4.06,4.06,0,0,1-4.06-4.06V364.19A0,0,0,0,1,117.1,364.19Z" fill="#ebebeb"/>
<rect x="105.29" y="304.3" width="32.97" height="62.09" rx="7.5" fill="#ebebeb"/>
<path d="M121.17,296.6h1.22a4.06,4.06,0,0,1,4.06,4.06V307a0,0,0,0,1,0,0H117.1a0,0,0,0,1,0,0v-6.38A4.06,4.06,0,0,1,121.17,296.6Z" fill="#ebebeb"/>
<rect x="120.4" y="292.76" width="2.75" height="7.69" fill="#ebebeb"/>
<path d="M108,326.82c-.3-6.3-.3-12.9-.23-19.23v-.24H108l3.84.09c1.13,0,2.74.07,3.85.14-1.1.06-2.72.11-3.85.15l-3.84.08.23-.23c.06,6.34.06,12.92-.23,19.23Z" fill="#fff"/>
<path d="M108,332.32h27.47a0,0,0,0,1,0,0V349.5a11.95,11.95,0,0,1-11.95,11.95H120A11.95,11.95,0,0,1,108,349.5V332.32A0,0,0,0,1,108,332.32Z" fill="#0071f2" data-primary="true"/>
<rect x="76.17" y="288.36" width="5.49" height="35.72" fill="#e1e1e2"/>
<path d="M78.22,318.58h1.93A6.45,6.45,0,0,1,86.61,325V656a0,0,0,0,1,0,0H71.77a0,0,0,0,1,0,0V325A6.45,6.45,0,0,1,78.22,318.58Z" fill="#2f2e41" data-secondary="true"/>
<path d="M122.85,649.92H109.71A18.73,18.73,0,0,1,91,631.21V557.06h2.2v74.15a16.53,16.53,0,0,0,16.51,16.51h13.14a16.53,16.53,0,0,0,16.51-16.51V557.06h2.2v74.15A18.73,18.73,0,0,1,122.85,649.92Z" fill="#e1e1e2"/>
<path d="M142.4,622.45h-11a14.56,14.56,0,0,1-14.54-14.55V557.06H119V607.9a12.36,12.36,0,0,0,12.34,12.35h11a12.36,12.36,0,0,0,12.34-12.35V557.06h2.2V607.9A14.56,14.56,0,0,1,142.4,622.45Z" fill="#e1e1e2"/>
<path d="M109.11,496.06h55.54a14.81,14.81,0,0,1,14.81,14.81v2.22a0,0,0,0,1,0,0H94.3a0,0,0,0,1,0,0v-2.22A14.81,14.81,0,0,1,109.11,496.06Z" fill="#e1e1e2"/>
<path d="M98.5,509.8h74A15.19,15.19,0,0,1,187.71,525v7.34a0,0,0,0,1,0,0H83.31a0,0,0,0,1,0,0V525A15.19,15.19,0,0,1,98.5,509.8Z" fill="#ccc"/>
<rect x="647.24" y="320.99" width="93.96" height="52.2" rx="6.38" fill="#0071f2" data-primary="true"/>
<path d="M741.2,327.38v39.43a6.38,6.38,0,0,1-6.38,6.38h-19.6c4.31,0,6.6-1.64,7.8-3.29a7.23,7.23,0,0,0,1.34-4.29V330c.08-4.82-2.26-7.5-4.88-9h15.34A6.39,6.39,0,0,1,741.2,327.38Z" opacity="0.2"/>
<path d="M211.89,423h71.43a0,0,0,0,1,0,0v13.19a0,0,0,0,1,0,0H220.4a8.51,8.51,0,0,1-8.51-8.51V423A0,0,0,0,1,211.89,423Z" fill="#3f4347"/>
<rect x="209.14" y="342.21" width="109.35" height="80.77" rx="16.63" fill="#f8f6ee"/>
<rect x="214.09" y="347.15" width="81.87" height="71.98" rx="7.34" fill="#0071f2" opacity="0.21" data-primary="true"/>
<path d="M221.42,419.14a7.34,7.34,0,0,1-7.33-7.34V354.49a7.34,7.34,0,0,1,7.33-7.34s-3.49,1.1-3.49,7.7v59.89S217.77,416.94,221.42,419.14Z" fill="#0071f2" opacity="0.21" data-primary="true"/>
<rect x="271.78" y="355.4" width="19.78" height="4.4" fill="#f8f6ee"/>
<rect x="271.78" y="361.44" width="19.78" height="4.4" fill="#f8f6ee"/>
<rect x="271.78" y="367.49" width="19.78" height="4.4" fill="#f8f6ee"/>
<rect x="271.78" y="373.53" width="19.78" height="4.4" fill="#f8f6ee"/>
<path d="M263.54,361.72a.28.28,0,0,1-.26-.19l-1.32-4-.35,1.74a.27.27,0,0,1-.27.22H257.5a.27.27,0,0,1-.26-.18l-1.36-3.63-1.42,4.71a.31.31,0,0,1-.27.2.29.29,0,0,1-.26-.21l-.87-3.48-.8,2.4a.27.27,0,0,1-.26.19h-4.94a.29.29,0,0,1-.28-.28v-2.42L245.11,361a.27.27,0,0,1-.27.18.29.29,0,0,1-.25-.22l-.88-4-.79,2.36a.28.28,0,0,1-.26.19h-4.94a.28.28,0,0,1-.28-.24l-.36-2.53-1.3,4.76a.29.29,0,0,1-.27.21.28.28,0,0,1-.26-.23l-.88-4.38-.79,2.76a.27.27,0,0,1-.26.2h-4.95a.28.28,0,0,1-.27-.28v-2.68l-1.68,3.35a.27.27,0,0,1-.26.16.28.28,0,0,1-.24-.19l-.87-2.59-.82,2.05a.27.27,0,0,1-.25.18h-3.85a.28.28,0,0,1-.27-.28.27.27,0,0,1,.27-.27h3.66l1-2.58a.28.28,0,0,1,.27-.17.28.28,0,0,1,.25.19l.89,2.67,1.9-3.81a.28.28,0,0,1,.31-.14.28.28,0,0,1,.21.27v3.57h4.46l1-3.65a.29.29,0,0,1,.28-.2.29.29,0,0,1,.26.22l.87,4.36,1.34-4.93a.28.28,0,0,1,.28-.2.29.29,0,0,1,.26.24L238,359h4.51l1-3.11a.26.26,0,0,1,.27-.19.29.29,0,0,1,.26.22l.9,4.07,1.87-4.67a.28.28,0,0,1,.53.11V359h4.47l1-3.11a.29.29,0,0,1,.27-.19.29.29,0,0,1,.26.21l.85,3.43,1.37-4.54a.28.28,0,0,1,.25-.2.29.29,0,0,1,.27.18l1.58,4.22h3.43l.5-2.53a.29.29,0,0,1,.26-.22.26.26,0,0,1,.27.19l1.37,4.08,1.4-5.17a.29.29,0,0,1,.27-.2h0a.27.27,0,0,1,.26.2L266.5,359h2a.27.27,0,0,1,.27.27.28.28,0,0,1-.27.28h-2.2a.29.29,0,0,1-.27-.2l-.82-2.9-1.39,5.09a.3.3,0,0,1-.26.21Z" fill="#fff"/>
<path d="M235.52,381.5h0a.29.29,0,0,1-.25-.25l-.89-8-.76,4.2a.27.27,0,0,1-.27.22H227l-.51,3.07a.29.29,0,0,1-.28.23.28.28,0,0,1-.27-.24l-.86-6.92-.79,4.73a.28.28,0,0,1-.27.23h-2.75a.28.28,0,0,1,0-.55h2.52l1.06-6.36a.27.27,0,0,1,.54,0l.87,6.92.24-1.44a.27.27,0,0,1,.27-.23h6.36l1.06-5.82a.27.27,0,0,1,.28-.22.27.27,0,0,1,.26.24l.95,8.51.71-2.51a.28.28,0,0,1,.27-.2h5.81l1.06-5.82a.26.26,0,0,1,.28-.22.26.26,0,0,1,.26.24l.88,7.42.23-1.39a.27.27,0,0,1,.27-.23h6.34l.53-5.25a.26.26,0,0,1,.27-.24h0a.26.26,0,0,1,.27.24l.87,6.92.24-1.44a.28.28,0,0,1,.27-.23h6.92l1.05-5.27a.26.26,0,0,1,.29-.22.28.28,0,0,1,.26.26l.39,6.61.16-1.14a.27.27,0,0,1,.27-.24h3.85a.28.28,0,0,1,0,.55h-3.61l-.52,3.61a.29.29,0,0,1-.28.24.28.28,0,0,1-.26-.26l-.43-7.21-.68,3.4a.27.27,0,0,1-.27.22h-6.91l-.51,3.07a.29.29,0,0,1-.27.23.28.28,0,0,1-.27-.24l-.8-6.37-.3,3.06a.29.29,0,0,1-.28.25h-6.36l-.51,3.07a.27.27,0,0,1-.28.23.28.28,0,0,1-.26-.24l-.89-7.52-.77,4.24a.27.27,0,0,1-.27.22h-5.84l-1,3.65A.27.27,0,0,1,235.52,381.5Z" fill="#2f2e41" data-secondary="true"/>
<path d="M268.49,395.23h-2.75a.28.28,0,0,1-.28-.27V393a1.65,1.65,0,1,0-3.29,0V395a.28.28,0,0,1-.28.27H256.4a.28.28,0,0,1-.28-.27V393a1.65,1.65,0,1,0-3.29,0V395a.28.28,0,0,1-.28.27h-4.94a.27.27,0,0,1-.28-.27V393a1.65,1.65,0,1,0-3.3,0V395a.27.27,0,0,1-.27.27h-6a.27.27,0,0,1-.28-.27V393a1.65,1.65,0,1,0-3.3,0V395a.27.27,0,0,1-.27.27h-5a.27.27,0,0,1-.27-.27V393a1.65,1.65,0,1,0-3.3,0V395a.27.27,0,0,1-.27.27h-4.4a.27.27,0,0,1-.27-.27.28.28,0,0,1,.27-.28h4.12V393a2.2,2.2,0,1,1,4.4,0v1.64h4.39V393a2.2,2.2,0,1,1,4.4,0v1.64h5.5V393a2.2,2.2,0,1,1,4.39,0v1.64h4.4V393a2.2,2.2,0,1,1,4.39,0v1.64h4.95V393a2.2,2.2,0,1,1,4.39,0v1.64h2.48a.28.28,0,0,1,.27.28A.27.27,0,0,1,268.49,395.23Z" fill="#fff"/>
<circle cx="224.8" cy="406.22" r="3.02" fill="#f8f6ee"/>
<circle cx="232.83" cy="406.22" r="3.02" fill="#f8f6ee"/>
<circle cx="240.85" cy="406.22" r="3.02" fill="#f8f6ee"/>
<circle cx="248.87" cy="406.22" r="3.02" fill="#f8f6ee"/>
<circle cx="256.89" cy="406.22" r="3.02" fill="#f8f6ee"/>
<circle cx="264.92" cy="406.22" r="3.02" fill="#f8f6ee"/>
<rect x="222.33" y="425.73" width="11.54" height="2.2" fill="#fff"/>
<rect x="222.33" y="431.78" width="11.54" height="1.65" fill="#fff"/>
<rect x="238.27" y="431.78" width="11.54" height="1.65" fill="#fff"/>
<rect x="238.27" y="425.73" width="11.54" height="2.2" fill="#fff"/>
<path d="M205.61,463.23a26.83,26.83,0,0,1-14.37-3.93l.21-1.21a28.31,28.31,0,0,0,22.48,2.83l.31,1.05A30.73,30.73,0,0,1,205.61,463.23Z" fill="#0071f2" data-primary="true"/>
<path d="M153.64,502.11l9.9-3.85,24.17,6.6s1.65,20.88,23.63,22.53h22l-3.85-69.24s-15.93,4.4-33,22.53l-17-3.3-29.67,17Z" fill="#f7a48b"/>
<path d="M240.46,527.39V559.8H84.14A16.2,16.2,0,0,1,69,549.36a16,16,0,0,1-1.06-5.77,16.18,16.18,0,0,1,16.21-16.2Z" fill="#e1e1e2"/>
<path d="M240.46,549.36V559.8H84.14A16.2,16.2,0,0,1,69,549.36Z" opacity="0.2"/>
<path d="M139.36,286.71a8.25,8.25,0,0,1-8.24,8.24h-50a8.24,8.24,0,0,1,0-16.48h50a8.06,8.06,0,0,1,2.31.33A8.25,8.25,0,0,1,139.36,286.71Z" fill="#2f2e41" data-secondary="true"/>
<path d="M139.36,286.71a8.25,8.25,0,0,1-8.24,8.24h-50a8.25,8.25,0,0,1-7.27-4.35l52.33.51c7.75-.71,8-7.51,7.26-12.31A8.25,8.25,0,0,1,139.36,286.71Z" opacity="0.2"/>
<path d="M109.41,423.53A12.92,12.92,0,0,1,96.5,410.62V283.41c.21-4.23,1.08-6.53,2.65-7,1.83-.6,3.62,1.51,3.82,1.75l-.85.7c-.41-.5-1.68-1.72-2.63-1.41-.6.2-1.65,1.25-1.89,6V410.62a11.82,11.82,0,0,0,23.63,0V361.44h1.09v49.18A12.92,12.92,0,0,1,109.41,423.53Z" fill="#0071f2" data-primary="true"/>
<path d="M596.88,456.78l0,.23-10.76,2.79s-33,7.69-114.84-14.84A581,581,0,0,0,400,426.46L399.81,379s1.42-28.65,20.77-44.54l22.29-25.12s7.93-.09,19.33.84c20.17,1.63,51.19,6.43,68.39,20.47,0,0,11.54,3.85,42.86,59.89Z" fill="#0071f2" data-primary="true"/>
<path d="M597.1,456.78l0,.23-10.76,2.79s-33,7.69-114.84-14.84a581,581,0,0,0-71.22-18.5L400,379s1.41-28.65,20.76-44.54l22.29-25.12s7.93-.09,19.33.84c20.17,1.63,51.19,6.43,68.39,20.47,0,0,11.54,3.85,42.86,59.89Z" fill="#fff" opacity="0.4"/>
<path d="M522.35,343.31c-1.12,10.18-1.89,20.41-2.07,30.64a118.26,118.26,0,0,0,1.5,22.88,39.67,39.67,0,0,0,2,7.36c.6,2.31,1.21,4.61,1.78,6.92s1.17,4.61,1.72,6.93c-.73-2.27-1.42-4.54-2.12-6.81s-1.44-4.74-2.06-6.79a53.67,53.67,0,0,1-3.41-15.08c-1.33-15.37,0-30.89,2.65-46.05Z" fill="#fff" opacity="0.4"/>
<path d="M480,428.48c14.6-8.73,34-11.44,50.76-11,2.5.11,5,.32,7.48.51-3.6,0-7.6,0-11.22.15-15.71.62-32.81,3.34-47,10.29Z" fill="#fff" opacity="0.4"/>
<path d="M468.5,435.62a11.06,11.06,0,0,0-1.45,8.16s-15.11-5-32.38-9.62c0,0,1.41-7.33,4.16-11.18,0,0-20.17-10.32-20-18.42a1,1,0,0,1,1.35-.83c4.06,2,18.43,9,28.72,15.87a21.92,21.92,0,0,1,1.81,1.36Z" fill="#0071f2" data-primary="true"/>
<path d="M468.5,435.62a11.06,11.06,0,0,0-1.45,8.16s-15.11-5-32.38-9.62c0,0,1.41-7.33,4.16-11.18,0,0-20.17-10.32-20-18.42a1,1,0,0,1,1.35-.83c4.06,2,18.43,9,28.72,15.87a21.92,21.92,0,0,1,1.81,1.36Z" fill="#fff" opacity="0.2"/>
<path d="M330.58,410.89a17,17,0,0,1,.91,9s34.13-.93,68.54,6.59V412.67S358.6,404.85,330.58,410.89Z" fill="#0071f2" data-primary="true"/>
<path d="M330.58,410.89a17,17,0,0,1,.91,9s34.13-.93,68.54,6.59V412.67S358.6,404.85,330.58,410.89Z" fill="#fff" opacity="0.5"/>
<path d="M276.62,431.71s-1.54-13.12,33.08-16.42c0,0-10.07-3.64-13.14-8a2.46,2.46,0,0,1,2.16-3.85c4.68.21,15.48,1.42,31.86,7.41,0,0,1.82,3.12.91,9C331.49,419.87,298.6,421.82,276.62,431.71Z" fill="#0071f2" data-primary="true"/>
<path d="M276.62,431.71s-1.54-13.12,33.08-16.42c0,0-10.07-3.64-13.14-8a2.46,2.46,0,0,1,2.16-3.85c4.68.21,15.48,1.42,31.86,7.41,0,0,1.82,3.12.91,9C331.49,419.87,298.6,421.82,276.62,431.71Z" fill="#fff" opacity="0.2"/>
<path d="M462.2,310.2l-12,18.17a51,51,0,0,1-9.05,10.45c-11.69,10.21-14.82,3.1-14.82,3.1l16.52-32.56S450.8,309.27,462.2,310.2Z" fill="#fff" opacity="0.4"/>
<path d="M596,330.67s-12.64-2.75-17.58,2.75a18.9,18.9,0,0,1-12.09-6.6s-7.7-7.14-4.95-13.73c0,0-6-1.65-4.39-9.89a8,8,0,0,1-7-6.54,14.43,14.43,0,0,1-.16-4.45,7.63,7.63,0,0,1-2.76-3.55c-.95-2.4-1.07-6.1,2.21-11.29,0,0,2.2-7.14,12.09-3.85,0,0,6-17.58,23.08-7.69,0,0,24.18,12.64,23.08,39C607.52,304.84,616.86,320.78,596,330.67Z" fill="#0071f2" data-primary="true"/>
<path d="M596,330.67s-12.64-2.75-17.58,2.75a18.9,18.9,0,0,1-12.09-6.6s-7.7-7.14-4.95-13.73c0,0-6-1.65-4.39-9.89a8,8,0,0,1-7-6.54,14.43,14.43,0,0,1-.16-4.45,7.63,7.63,0,0,1-2.76-3.55c-.95-2.4-1.07-6.1,2.21-11.29,0,0,2.2-7.14,12.09-3.85,0,0,6-17.58,23.08-7.69,0,0,24.18,12.64,23.08,39C607.52,304.84,616.86,320.78,596,330.67Z" fill="#fff" opacity="0.3"/>
<path d="M596,330.67s-12.64-2.75-17.58,2.75a18.9,18.9,0,0,1-12.09-6.6s-7.7-7.14-4.95-13.73c0,0,15.94,13.18,33,6.59a21.19,21.19,0,0,0,13.19-14.84S616.86,320.78,596,330.67Z" fill="#fff" opacity="0.3"/>
<path d="M547.51,293.24a60.45,60.45,0,0,1-6.65,12.15A39.37,39.37,0,0,0,535,317.32c-3.45,11.78-4.75,31.21,25.31,29.29l8.79,13.73,18.14-8.24-6.6-15.93-13.73-.55L562,320.23s-2.24-2.2-.59-7.14c0,0-6-1.65-4.39-9.89a9.11,9.11,0,0,1-7-6.54A13.39,13.39,0,0,0,547.51,293.24Z" fill="#f9b499"/>
<path d="M563.25,338.27a27.79,27.79,0,0,1-21.12,7.79c-11.65-2.5-12-17.91-11.42-25.25a16.22,16.22,0,0,1,3.17-8.6,10.06,10.06,0,0,1,1.57-1.71c1.94-1.63,3.1-.84,3.1-.84,10.16,10.87,20.64,13.17,20.64,13.17l1.09,4.17Z" fill="#0071f2" data-primary="true"/>
<path d="M560.28,327c-16.55-4.67-22.71-12.58-24.83-16.5,1.94-1.63,3.1-.84,3.1-.84,10.16,10.87,20.64,13.17,20.64,13.17Z" opacity="0.2"/>
<path d="M555.61,321.85s1-7.11,3.9-9.59l1.85.83a9.89,9.89,0,0,0,.92,8,4.7,4.7,0,0,0-3.09,1.79Z" fill="#2f2e41" data-secondary="true"/>
<rect x="309.15" y="552.66" width="100.17" height="58.79" fill="#0071f2" data-primary="true"/>
<rect x="305.46" y="623.21" width="109.35" height="32.97" fill="#0071f2" data-primary="true"/>
<path d="M317.15,606.72H402a21,21,0,0,1,21,21v3.15a0,0,0,0,1,0,0H296.12a0,0,0,0,1,0,0v-3.15A21,21,0,0,1,317.15,606.72Z" fill="#0071f2" data-primary="true"/>
<path d="M317.15,606.72H402a21,21,0,0,1,21,21v3.15a0,0,0,0,1,0,0H296.12a0,0,0,0,1,0,0v-3.15A21,21,0,0,1,317.15,606.72Z" opacity="0.2"/>
<polygon points="440.64 565.51 445.78 656.51 527.29 656.18 527.29 578.28 440.64 565.51" fill="#2f2e41" data-secondary="true"/>
<polygon points="440.64 565.51 445.78 656.51 527.29 656.18 527.29 578.28 440.64 565.51" opacity="0.2"/>
<path d="M509.16,577.36s14.67,50.24,27.2,78.82h59.07L600.92,573Z" fill="#2f2e41" data-secondary="true"/>
<path d="M358.37,552.66s23.47,18.35,22.92,39.78v14.28s16.72,6.72,10.55,49.79h23V630.9h8.24s1.6-18.26-13.76-22.87V552.66Z" fill="#fff" opacity="0.3"/>
<ellipse cx="243.59" cy="254.14" rx="19.54" ry="11.29" transform="translate(-84.43 126.36) rotate(-24.93)" fill="#fff"/>
<ellipse cx="288.43" cy="234.37" rx="18.79" ry="10.44" transform="translate(-71.92 143.41) rotate(-24.93)" fill="#fff"/>
<ellipse cx="313.71" cy="254.71" rx="18.56" ry="9.94" transform="translate(-78.13 155.96) rotate(-24.93)" fill="#fff"/>
<ellipse cx="286.74" cy="285.45" rx="17.3" ry="9.94" transform="translate(-93.6 147.46) rotate(-24.93)" fill="#fff"/>
<ellipse cx="244.36" cy="286.63" rx="18.43" ry="9.94" transform="translate(-98.05 129.7) rotate(-24.93)" fill="#fff"/>
<path d="M331.67,234.38a21.44,21.44,0,0,0-2.35-3.58c-5.87-7.14-19.2-16.27-47.76-10.85a106,106,0,0,0-47.79,22.18C220.57,253,208,269,215.12,287.07c-.22-.1-6.64-3.06-9.46-16.08-.3-1.35-.55-2.81-.75-4.4,0,0-1.1-31.87,46.15-53.85,0,0,39.48-16.33,64.78-3.67a29,29,0,0,1,10.75,9.23h0a28.1,28.1,0,0,1,4.71,11.19A21.14,21.14,0,0,1,331.67,234.38Z" fill="#3f4347"/>
<path d="M326.59,218.3a29,29,0,0,0-10.75-9.23c-25.3-12.66-64.78,3.67-64.78,3.67-47.25,22-46.15,53.85-46.15,53.85.2,1.59.45,3.05.75,4.4,0,0-10.79-9.25,0-32.38,0,0,23.63-46.15,85.86-43.49A46.81,46.81,0,0,1,313,201.24C319.1,204.81,325.3,210.31,326.59,218.3Z" fill="#2e3135"/>
<path d="M418.22,332l6.32,8.6s1.73,2.77,8.2.35a22.93,22.93,0,0,0,12.14-10.51,29.44,29.44,0,0,0,3.29-10.17,8.06,8.06,0,0,0-1.1-6.59l-4.95-5.5Z" fill="#f7a48b"/>
<ellipse cx="417" cy="301.75" rx="25.56" ry="30.74" transform="translate(-67.91 129.12) rotate(-16.29)" fill="#f9b499"/>
<line x1="430.58" y1="302.65" x2="443.77" y2="290.01" fill="none" stroke="#fff" stroke-miterlimit="10"/>
<line x1="436.08" y1="324.63" x2="447.07" y2="305.94" fill="none" stroke="#fff" stroke-miterlimit="10"/>
<ellipse cx="445.97" cy="296.33" rx="8.24" ry="10.71" fill="#f9b499"/>
<path d="M450.67,287.37s-10.28-4.71-9.14,7.2c1.6,6.22-1.06,6.43-1.06,6.43-4.94,1.65-5.49-8.24-5.49-8.24C422.89,293.85,415.75,279,415.75,279l-7.15-.55s-2,8.14-15.56,10.12c0,0-9.71,9.66-16.85-1.88l2.74-1.1s-3.6-2.16-2.05-7.34a15.25,15.25,0,0,1,2.05-4.2s12.64-15.38,41.21-15.93C420.14,258.14,454.82,254,450.67,287.37Z" fill="#2f2e41" data-secondary="true"/>
<path d="M408.6,278.47s-2,8.14-15.56,10.12c0,0-9.71,9.66-16.85-1.88l2.74-1.1s-3.6-2.16-2.05-7.34c2.65,4,7,8.41,12.49,6.79,0,0,.45-3.11.13-3.73C390.59,281.78,397.08,283.27,408.6,278.47Z" opacity="0.2"/>
<path d="M450.94,275.23s-31.35-16-66.51-4.45l.55-3.1,2.2-12.29s2.74-10.44,15.93-12.09c0,0,13.59-3.53,27.39-.27a36,36,0,0,1,16.57,8.51s3.85,3.85,3.85,15.94Z" fill="#0071f2" data-primary="true"/>
<path d="M450.94,275.23s-31.35-16-66.51-4.45l.55-3.1c8.22-6.81,30.77-7.34,30.77-7.34,30.77-3.3,14.67-17.17,14.67-17.17l.08-.14a36,36,0,0,1,16.57,8.51s3.85,3.85,3.85,15.94Z" opacity="0.2"/>
<path d="M430.58,302.65s-29.24-4.76-36.32,10.81c0,0,14.07,39.24,41.82,11.17C436.08,324.63,433.33,320.23,430.58,302.65Z" fill="#0071f2" data-primary="true"/>
<ellipse cx="151.17" cy="471.61" rx="39.29" ry="26.1" fill="#f9b499"/>
<path d="M130.42,438.66s12.78-8,20.75,6.85a70.62,70.62,0,0,0-14.38,1.95S136.87,442.25,130.42,438.66Z" fill="#2f2e41" data-secondary="true"/>
<path d="M158.93,445.64l9.55,21.3,22,.53a20,20,0,0,0,1.08-8.62,15.3,15.3,0,0,0-14-13.71A101.65,101.65,0,0,0,158.93,445.64Z" fill="#0071f2" data-primary="true"/>
<ellipse cx="145.13" cy="503.21" rx="11.26" ry="8.24" fill="#f9b499"/>
<path d="M152,496.59a16.81,16.81,0,0,0-13.05-.61c-.44,4.87-2.85,6.68-2.85,6.68,6.05,15.93-10.44,15.38-10.44,15.38a13.37,13.37,0,0,1-5.25-.74c-7.94-3-7.94-13.54-7.94-13.54-23.07-1.65-14.28-20.88-14.28-20.88-8.79-15.39,2.74-24.73,2.74-24.73,5-23.08,18.14-22.53,18.14-22.53a14.42,14.42,0,0,1,9.58,1.55,20.61,20.61,0,0,1,4.67,3.46,13.59,13.59,0,0,1,3,14.93,53.35,53.35,0,0,1-6.81,11.38c10.44,4.4,3.29,12.09,3.29,12.09,7.7-1.1,9.35,2.2,9.35,2.2,2.19,4.94-1.1,10.44-1.1,10.44C152,490,152,496.59,152,496.59Z" fill="#2f2e41" data-secondary="true"/>
<path d="M152,496.59a16.81,16.81,0,0,0-13.05-.61c-.44,4.87-2.85,6.68-2.85,6.68,6.05,15.93-10.44,15.38-10.44,15.38a13.37,13.37,0,0,1-5.25-.74,10.71,10.71,0,0,1,4.7-9.15c-6-8.79-1.1-14.83-1.1-14.83,11.54-11.54-3.29-22-3.29-22-9.89-9.89,1.64-21.43,1.64-21.43,8-5.33,6.39-12.33,6.29-12.74a20.61,20.61,0,0,1,4.67,3.46,13.59,13.59,0,0,1,3,14.93,53.35,53.35,0,0,1-6.81,11.38c10.44,4.4,3.29,12.09,3.29,12.09,7.7-1.1,9.35,2.2,9.35,2.2,2.19,4.94-1.1,10.44-1.1,10.44C152,490,152,496.59,152,496.59Z" opacity="0.2"/>
<path d="M618,451.56,617,475.1l-4,102.84c-65.39,29.12-162.09-7.15-162.09-7.15L408.6,560.9c-40.11-10.44-95.06,19.78-95.06,19.78-41.21,17.59-94.51,1.1-94.51,1.1-.55-13.18,6.05-29.12,6.05-29.12,5.49-22-6.6-46.16-6.6-46.16a65.56,65.56,0,0,1-3.28-12,122.11,122.11,0,0,1-1.66-24.81c-2.2-19.78,15.93-23.63,15.93-23.63,9.95-2.58,16.44-2.69,19.64-2.48a7.41,7.41,0,0,0,4.55-1.17c34.26-22.15,64.28-21.62,64.28-21.62,25.24-2.91,55.31.54,82.09,5.67A581,581,0,0,1,471.25,445c81.87,22.53,114.84,14.84,114.84,14.84L596.85,457Z" fill="#0071f2" data-primary="true"/>
<path d="M617,475.1l-4,102.84c-65.39,29.12-162.09-7.15-162.09-7.15L408.6,560.9c-40.11-10.44-95.06,19.78-95.06,19.78-41.21,17.59-94.51,1.1-94.51,1.1-.55-13.18,6.05-29.12,6.05-29.12,5.49-22-6.6-46.16-6.6-46.16a65.56,65.56,0,0,1-3.28-12c22.3,3.52,66.45,4.5,136.26-18.77,0,0,34.07-11.54,95.06-7.69C446.52,468,578.16,489.5,617,475.1Z" opacity="0.2"/>
<path d="M643.23,357.05s61,47.8,54.4,66.48c0,0-2.66,8.53-7.92,14.16C689.71,437.69,654.22,369.13,643.23,357.05Z" fill="#0071f2" data-primary="true"/>
<path d="M643.23,357.05s61,47.8,54.4,66.48c0,0-2.66,8.53-7.92,14.16C689.71,437.69,654.22,369.13,643.23,357.05Z" fill="#fff" opacity="0.4"/>
<path d="M475.63,454.26l-6,0s-12.64-7.14-22.53-7.14L435,445.51s-3.85,4.4,9.89,7.15c0,0,5.5,1.09,3.85,3.84,0,0-6.05,4.4-12.64,3.85,0,0-9.38-2.53-14.1-2.32a1.31,1.31,0,0,0-.86,2.23c4,3.94,15,14.11,23.72,15.35a8,8,0,0,0,2.85-.13c3.45-.74,13.88-3.08,22.46-5.79,0,0,4.51-1.78,6.93-1.44Z" fill="#f9b499"/>
<path d="M715.22,490c-45.6-2.24-90.47,23.89-105.61,33.72-3.48,2.25-5.39,3.65-5.39,3.65-11.54-25.83-18.13-67.59-18.13-67.59l-14.84-13.19c-18.68,30.22-57.14,31.87-57.14,31.87-35.72,3.3-36.82-8.24-36.82-8.24l-.21-2-1.44-13.4c1.65-15.93,19.78-15.93,19.78-15.93,18.69-3.24,29.86-6.71,35.35-8.72a9.32,9.32,0,0,0,5.6-5.71l12.35-35.57c6.6-28.58,32.42-37.37,32.42-37.37,29.67-19.78,62.09,5.5,62.09,5.5C666.31,386.72,715.22,490,715.22,490Z" fill="#0071f2" data-primary="true"/>
<path d="M715.22,490c-45.6-2.24-90.47,23.89-105.61,33.72-3.48,2.25-5.39,3.65-5.39,3.65-11.54-25.83-18.13-67.59-18.13-67.59l-14.84-13.19c-18.68,30.22-57.14,31.87-57.14,31.87-35.72,3.3-36.82-8.24-36.82-8.24l-.21-2-1.44-13.4c1.65-15.93,19.78-15.93,19.78-15.93,18.69-3.24,29.86-6.71,35.35-8.72a9.32,9.32,0,0,0,5.6-5.71l12.35-35.57c6.6-28.58,32.42-37.37,32.42-37.37,29.67-19.78,62.09,5.5,62.09,5.5C666.31,386.72,715.22,490,715.22,490Z" fill="#fff" opacity="0.3"/>
<path d="M737.2,656l-68.14.55,5.39-162s26-6.45,37.24-4.66C711.69,489.87,735.55,542.77,737.2,656Z" fill="#0071f2" data-primary="true"/>
<path d="M737.2,656l-68.14.55,5.39-162s26-6.45,37.24-4.66C711.69,489.87,735.55,542.77,737.2,656Z" fill="#fff" opacity="0.4"/>
<path d="M609.61,523.74c-3.48,2.25-5.39,3.65-5.39,3.65-11.54-25.83-18.13-67.59-18.13-67.59l-14.84-13.19c-18.68,30.22-57.14,31.87-57.14,31.87-35.72,3.3-36.82-8.24-36.82-8.24l-.21-2c14.4,4,62.69,13.08,91.42-33.73,0,0,25.28,13.74,30.23,29.13Z" fill="#fff" opacity="0.3"/>
<path d="M604.22,527.39,584.88,656.45l84.18.06s24.74-121.44,16.77-164.57C685.83,491.94,651.48,496.61,604.22,527.39Z" fill="#0071f2" data-primary="true"/>
<path d="M604.22,527.39,584.88,656.45l84.18.06s24.74-121.44,16.77-164.57C685.83,491.94,651.48,496.61,604.22,527.39Z" fill="#fff" opacity="0.5"/>
<ellipse cx="562.55" cy="328.23" rx="9.96" ry="6.35" transform="translate(-46.95 557.79) rotate(-50.9)" fill="#f9b499"/>
<path d="M578.4,333.42c6-5.5,17.58-2.75,17.58-2.75,8.79,5.5,5.49,13.74,5.49,13.74-7.8-.07-20.33,7.14-20.33,7.14-8.24-1.1-8.79-9.34-8.79-9.34-9.89,2.2-10-6.66-10-6.66s4-.19,6.59-6a17.82,17.82,0,0,0,5.22,3A14.47,14.47,0,0,0,578.4,333.42Z" fill="#2f2e41" data-secondary="true"/>
<path d="M550,296.66h-.05c-4.84-2.14-2.93-8-2.93-8l.06,0a7.63,7.63,0,0,0,2.76,3.55A14.43,14.43,0,0,0,550,296.66Z" fill="#2f2e41" data-secondary="true"/>
</svg>